<svg width="295" height="250" viewBox="0 0 295 250" fill="none" xmlns="http://www.w3.org/2000/svg">
<g clip-path="url(#clip0_2204_15)">
<path d="M244.806 215.785H191.229V215.091H191.229C205.255 215.091 218.706 209.519 228.623 199.602C238.541 189.684 244.113 176.233 244.113 162.207V124.817H244.806V215.785Z" fill="#D9D9D9"/>
<path d="M98.6189 80.6408C97.1946 81.1834 95.7402 81.6433 94.2629 82.0183C92.3116 82.4939 91.2098 82.7144 89.3264 81.9834C89.2603 81.9577 89.1971 81.9323 89.1376 81.9074C85.5676 80.3895 82.516 77.8666 80.354 74.6457C78.192 71.4248 77.013 67.6449 76.9605 63.766C76.9511 63.6329 76.9511 63.4931 76.9511 63.3566C76.9492 62.6992 76.9807 62.0421 77.0452 61.3879C77.1278 60.4967 77.2703 59.6122 77.4719 58.7402L77.4531 58.7368C75.9282 57.1775 75.3415 55.0416 75.536 52.8955C75.6693 51.4405 76.1311 50.0348 76.8865 48.7842C77.642 47.5336 78.6714 46.4708 79.8973 45.6758C81.8185 44.4679 83.9847 43.7033 86.2384 43.4376C86.8436 43.3678 87.4522 43.3325 88.0614 43.3318H93.7844C94.9664 43.0551 96.1671 42.8658 97.3769 42.7654H97.3863C108.904 41.8101 117.988 49.446 117.141 58.7368C117.134 58.747 117.125 58.7572 117.119 58.7675C116.874 59.1667 116.658 59.5454 116.466 59.9071C116.281 60.2449 116.124 60.569 115.989 60.8761C114.938 63.2508 119.933 100.095 118.142 100.654C117.122 100.971 113.012 73.5549 113.749 78.7684C114.678 85.3091 103.925 78.6793 98.6189 80.6408Z" fill="#2F2E41"/>
<path d="M115.97 147.244L131.937 181.258L70.5176 175.038L83.3385 142.384L115.97 147.244Z" fill="#FFB6B6"/>
<path d="M148.022 215.442C137.341 218.997 126.086 220.505 114.846 219.885L109.959 211.959C109.959 211.959 109.754 214.911 109.449 219.424C104.099 218.804 98.818 217.685 93.6763 216.08C83.9256 213.031 74.7854 208.307 65.5202 203.95C63.6436 192.763 62.9395 175.513 73.3146 165.471L129.158 175.704C129.158 175.704 138.118 182.405 135.721 184.806C133.324 187.203 132.953 186.831 134.528 188.406C136.103 189.981 139.506 192.087 139.541 193.464C139.554 194.001 143.374 203.752 148.022 215.442Z" fill="#2F2E41"/>
<path d="M106.219 81.5146L92.7269 82.4559L84.0067 90.8824L80.9527 91.4275C78.2076 91.9169 75.7374 93.3967 74.0108 95.5863C72.2841 97.7758 71.4209 100.523 71.5849 103.306C72.2131 113.95 73.6196 129.852 76.5594 135.012C81.1178 143.012 84.8829 140.502 81.1178 143.012C77.3527 145.522 74.8249 143.55 76.5594 147.516C78.2939 151.483 74.2151 156.572 74.2151 156.572L72.5913 158.195L74.3135 158.901L129.188 166.041C129.188 166.041 124.443 144.708 127.411 139.467C130.378 134.226 137.573 118.385 131.152 112.187L124.873 90.0924L114.074 86.9073L106.219 81.5146Z" fill="#22379D"/>
<path d="M187.89 169.074C186.987 169.046 186.101 168.821 185.294 168.417C184.486 168.012 183.776 167.437 183.213 166.73C182.649 166.024 182.246 165.204 182.03 164.327C181.815 163.45 181.793 162.536 181.965 161.649L156.225 144.217L159.296 135.911L189.717 156.84C191.188 157.241 192.461 158.168 193.294 159.445C194.127 160.722 194.463 162.261 194.238 163.769C194.013 165.277 193.242 166.65 192.072 167.628C190.902 168.605 189.414 169.12 187.89 169.074V169.074Z" fill="#FFB6B6"/>
<path d="M115.186 89.0489L111.445 90.53L131.398 129.499L172.704 157.655L178.658 147.592L147.216 120.433L134.628 96.2909C132.856 92.8934 129.888 90.2728 126.298 88.9353C122.707 87.5978 118.748 87.6383 115.186 89.0489Z" fill="#22379D"/>
<path d="M98.7707 78.0874C106.253 78.0874 112.318 72.0219 112.318 64.5398C112.318 57.0577 106.253 50.9922 98.7707 50.9922C91.2886 50.9922 85.2231 57.0577 85.2231 64.5398C85.2231 72.0219 91.2886 78.0874 98.7707 78.0874Z" fill="#FFB6B6"/>
<path d="M110.552 58.8109C110.326 58.9301 110.103 59.0399 109.877 59.1497C109.642 59.2627 109.406 59.3757 109.168 59.4823C104.634 61.5375 100.941 61.7665 98.701 58.8109C98.6397 57.2559 98.2896 55.7259 97.6687 54.299C97.7784 55.8936 97.3582 57.4798 96.4733 58.8109H91.9614C87.3146 61.8952 84.93 64.7284 88.1554 74.8535C88.3657 75.5187 89.8058 99.1511 90.2169 100.968C83.1823 98.2695 77.1142 69.62 76.9605 62.0709C76.951 61.9485 76.951 61.8199 76.951 61.6944C76.9492 61.0896 76.9806 60.4852 77.0452 59.884C77.128 59.0631 77.2706 58.2493 77.4719 57.4492L77.4531 57.446C76.7373 56.7618 76.1913 55.9198 75.8585 54.9872C75.5257 54.0547 75.4152 53.0572 75.536 52.0744C76.7161 50.5293 78.1764 49.2201 79.8408 48.2152C81.3542 47.4823 82.9317 46.89 84.5535 46.4456C84.5943 46.4362 84.6288 46.4268 84.6696 46.4173C85.1653 46.2824 85.6736 46.1601 86.1819 46.0534C87.2294 45.8337 88.2884 45.6734 89.354 45.5733C89.4325 45.5702 89.5077 45.5639 89.5768 45.5639C90.003 45.5642 90.4213 45.6791 90.7879 45.8965C90.791 45.8965 90.791 45.8996 90.7973 45.8996C91.1495 46.1101 91.4417 46.4077 91.6455 46.7638C91.8494 47.1199 91.9582 47.5225 91.9614 47.9328H96.9878C97.1729 47.9328 97.3581 47.9391 97.5432 47.9485C104.543 48.2277 110.169 51.221 110.53 58.1018C110.545 58.3403 110.552 58.5724 110.552 58.8109Z" fill="#2F2E41"/>
<path d="M80.8344 59.3555C85.7637 59.3555 89.7596 55.3595 89.7596 50.4303C89.7596 45.501 85.7637 41.505 80.8344 41.505C75.9051 41.505 71.9092 45.501 71.9092 50.4303C71.9092 55.3595 75.9051 59.3555 80.8344 59.3555Z" fill="#2F2E41"/>
<path d="M93.0877 46.3021C92.0738 51.1259 87.0711 54.011 82.2852 52.8308C79.9869 52.2641 78.0079 50.8076 76.7835 48.7817C75.5592 46.7558 75.1897 44.3266 75.7564 42.0283C76.9366 37.2424 82.7449 38.6221 86.559 35.4995C91.9545 31.0822 94.4552 39.7967 93.0877 46.3021Z" fill="#2F2E41"/>
<path d="M73.2571 180.579C80.8639 149.559 95.9361 122.896 120.898 102.007C121.864 100.417 123.421 99.2763 125.227 98.8337C127.033 98.391 128.942 98.6828 130.533 99.6453L189.873 135.624C191.462 136.59 192.603 138.147 193.046 139.954C193.489 141.76 193.197 143.668 192.234 145.26C182.707 177.09 168.437 204.71 144.594 223.832C143.628 225.422 142.071 226.563 140.264 227.006C138.458 227.448 136.55 227.156 134.958 226.194L75.6186 190.215C74.0294 189.249 72.8883 187.692 72.4455 185.885C72.0028 184.079 72.2947 182.171 73.2571 180.579Z" fill="#D9D9D9"/>
<path opacity="0.2" d="M83.8044 191.034C82.2152 190.068 81.0741 188.511 80.6314 186.704C80.1887 184.898 80.4806 182.99 81.443 181.399C89.0498 150.378 104.122 123.715 129.083 102.826C129.723 101.785 130.626 100.932 131.701 100.353L130.533 99.6452C128.942 98.6828 127.034 98.3909 125.227 98.8336C123.421 99.2763 121.864 100.417 120.898 102.006C95.9364 122.896 80.8642 149.559 73.2574 180.579C72.295 182.171 72.0031 184.079 72.4458 185.885C72.8885 187.692 74.0296 189.249 75.6188 190.215L134.959 226.194C136.015 226.829 137.22 227.174 138.453 227.194C139.685 227.213 140.901 226.907 141.977 226.305L83.8044 191.034Z" fill="black"/>
<path d="M153.395 173.703L113.563 149.703C112.93 149.32 112.475 148.702 112.298 147.984C112.12 147.267 112.235 146.508 112.616 145.874C112.998 145.241 113.615 144.785 114.333 144.607C115.05 144.428 115.809 144.542 116.443 144.923L156.275 168.923C156.906 169.306 157.36 169.924 157.536 170.641C157.713 171.358 157.598 172.116 157.217 172.748C156.836 173.381 156.22 173.836 155.503 174.015C154.787 174.194 154.029 174.082 153.395 173.703L153.395 173.703Z" fill="white"/>
<path d="M130.223 141.876L121.46 136.596C120.825 136.216 120.367 135.6 120.186 134.882C120.006 134.164 120.118 133.404 120.498 132.769C120.878 132.134 121.495 131.676 122.212 131.496C122.93 131.315 123.69 131.427 124.325 131.807L124.34 131.816L133.103 137.096C133.734 137.479 134.188 138.097 134.365 138.814C134.542 139.531 134.427 140.289 134.046 140.922C133.665 141.555 133.048 142.01 132.332 142.189C131.615 142.368 130.857 142.255 130.223 141.876Z" fill="white"/>
<path d="M147.064 184.209L107.232 160.209C106.599 159.828 106.143 159.21 105.964 158.493C105.786 157.775 105.899 157.016 106.28 156.382C106.661 155.748 107.278 155.291 107.996 155.112C108.713 154.933 109.472 155.046 110.107 155.426L110.112 155.429L149.944 179.429C150.575 179.813 151.029 180.43 151.206 181.147C151.382 181.864 151.267 182.622 150.886 183.255C150.505 183.887 149.889 184.343 149.172 184.522C148.456 184.701 147.698 184.588 147.064 184.209L147.064 184.209Z" fill="white"/>
<path d="M158.453 128.45C164.878 128.45 170.087 123.241 170.087 116.816C170.087 110.39 164.878 105.182 158.453 105.182C152.028 105.182 146.819 110.39 146.819 116.816C146.819 123.241 152.028 128.45 158.453 128.45Z" fill="#3F3D56"/>
<path d="M138.399 241.478C152.132 241.478 163.265 230.345 163.265 216.612C163.265 202.879 152.132 191.746 138.399 191.746C124.666 191.746 113.533 202.879 113.533 216.612C113.533 230.345 124.666 241.478 138.399 241.478Z" fill="white"/>
<path d="M138.399 241.825C133.413 241.825 128.538 240.346 124.392 237.576C120.245 234.805 117.014 230.868 115.106 226.261C113.197 221.654 112.698 216.584 113.671 211.693C114.644 206.803 117.045 202.31 120.571 198.784C124.097 195.258 128.589 192.857 133.48 191.884C138.371 190.911 143.441 191.41 148.048 193.318C152.655 195.227 156.592 198.458 159.363 202.605C162.133 206.751 163.612 211.625 163.612 216.612C163.604 223.297 160.946 229.705 156.219 234.432C151.492 239.159 145.084 241.817 138.399 241.825ZM138.399 192.093C133.55 192.093 128.809 193.531 124.777 196.225C120.745 198.919 117.602 202.749 115.746 207.229C113.891 211.709 113.405 216.639 114.351 221.396C115.297 226.152 117.633 230.521 121.062 233.95C124.491 237.379 128.86 239.714 133.616 240.66C138.372 241.606 143.302 241.121 147.782 239.265C152.263 237.409 156.092 234.266 158.786 230.234C161.48 226.202 162.918 221.461 162.918 216.612C162.911 210.111 160.325 203.879 155.729 199.283C151.132 194.686 144.9 192.1 138.399 192.093Z" fill="#3F3D56"/>
<path d="M135.007 229.554C134.578 229.554 134.154 229.454 133.77 229.262C133.386 229.069 133.052 228.791 132.794 228.447L126.011 219.402C125.792 219.111 125.633 218.78 125.543 218.428C125.453 218.076 125.432 217.71 125.484 217.35C125.535 216.991 125.657 216.644 125.842 216.332C126.027 216.019 126.272 215.746 126.563 215.528C126.853 215.31 127.184 215.151 127.536 215.061C127.888 214.971 128.255 214.951 128.614 215.002C128.974 215.054 129.32 215.176 129.633 215.361C129.945 215.547 130.218 215.792 130.436 216.083L134.874 222L146.273 204.902C146.475 204.6 146.734 204.34 147.036 204.138C147.338 203.936 147.676 203.795 148.032 203.724C148.389 203.653 148.755 203.652 149.112 203.723C149.468 203.793 149.807 203.933 150.109 204.135C150.411 204.336 150.671 204.595 150.873 204.897C151.075 205.199 151.216 205.537 151.287 205.894C151.358 206.25 151.359 206.617 151.288 206.973C151.218 207.329 151.078 207.668 150.876 207.97L137.309 228.322C137.063 228.69 136.733 228.994 136.346 229.208C135.959 229.422 135.526 229.54 135.084 229.553C135.058 229.553 135.033 229.554 135.007 229.554Z" fill="#22379D"/>
<path d="M218.704 90.6027C219.692 90.5183 220.446 89.8925 220.387 89.2051C220.328 88.5178 219.479 88.029 218.491 88.1135C217.503 88.198 216.75 88.8237 216.809 89.5111C216.867 90.1985 217.716 90.6872 218.704 90.6027Z" fill="white"/>
<path d="M229.822 86.8313C230.81 86.7468 231.563 86.1211 231.504 85.4337C231.446 84.7463 230.597 84.2576 229.609 84.3421C228.621 84.4266 227.867 85.0523 227.926 85.7397C227.985 86.4271 228.834 86.9158 229.822 86.8313Z" fill="#3F3D56"/>
<path d="M213.434 82.1207C214.422 82.0362 215.176 81.4105 215.117 80.7231C215.058 80.0357 214.209 79.547 213.221 79.6314C212.233 79.7159 211.48 80.3417 211.539 81.029C211.597 81.7164 212.446 82.2052 213.434 82.1207Z" fill="#FF6584"/>
<path d="M208.771 79.3876C209.196 79.2915 209.429 78.718 209.291 78.1066C209.153 77.4953 208.696 77.0776 208.271 77.1737C207.845 77.2698 207.612 77.8433 207.751 78.4546C207.889 79.066 208.345 79.4837 208.771 79.3876Z" fill="#D9D9D9"/>
<path d="M205.45 72.7523C205.876 72.6562 206.109 72.0827 205.97 71.4714C205.832 70.86 205.376 70.4423 204.95 70.5384C204.525 70.6345 204.292 71.208 204.43 71.8194C204.568 72.4307 205.025 72.8484 205.45 72.7523Z" fill="#3F3D56"/>
<path d="M221.38 82.0705C221.806 81.9744 222.038 81.4009 221.9 80.7895C221.762 80.1782 221.305 79.7605 220.88 79.8566C220.455 79.9527 220.222 80.5262 220.36 81.1375C220.498 81.7489 220.955 82.1666 221.38 82.0705Z" fill="#D9D9D9"/>
<path d="M216.525 86.1016C216.95 86.0055 217.183 85.432 217.045 84.8207C216.906 84.2093 216.45 83.7916 216.024 83.8877C215.599 83.9838 215.366 84.5573 215.505 85.1686C215.643 85.78 216.099 86.1977 216.525 86.1016Z" fill="#FF6584"/>
<path d="M225.365 89.385C225.79 89.2889 226.023 88.7154 225.885 88.104C225.747 87.4927 225.29 87.075 224.865 87.1711C224.439 87.2672 224.207 87.8407 224.345 88.452C224.483 89.0634 224.94 89.4811 225.365 89.385Z" fill="#3F3D56"/>
<path d="M172.803 39.2046C172.973 38.5359 172.331 37.7963 171.369 37.5527C170.408 37.309 169.491 37.6537 169.322 38.3224C169.153 38.9912 169.794 39.7308 170.756 39.9744C171.717 40.218 172.634 39.8734 172.803 39.2046Z" fill="white"/>
<path d="M161.064 39.129C161.233 38.4602 160.591 37.7206 159.63 37.477C158.669 37.2334 157.752 37.578 157.583 38.2467C157.413 38.9155 158.055 39.6551 159.016 39.8988C159.978 40.1424 160.894 39.7977 161.064 39.129Z" fill="#3F3D56"/>
<path d="M175.006 48.9445C175.176 48.2757 174.534 47.5361 173.573 47.2925C172.611 47.0488 171.695 47.3935 171.525 48.0622C171.356 48.731 171.998 49.4706 172.959 49.7142C173.92 49.9578 174.837 49.6132 175.006 48.9445Z" fill="#FF6584"/>
<path d="M177.743 52.6171C177.813 51.9942 177.518 51.45 177.084 51.4016C176.651 51.3532 176.243 51.8189 176.174 52.4418C176.104 53.0647 176.399 53.6089 176.832 53.6573C177.266 53.7057 177.673 53.24 177.743 52.6171Z" fill="#D9D9D9"/>
<path d="M178.708 59.9737C178.778 59.3508 178.483 58.8066 178.05 58.7582C177.616 58.7097 177.209 59.1754 177.139 59.7983C177.069 60.4212 177.364 60.9654 177.798 61.0138C178.231 61.0622 178.639 60.5965 178.708 59.9737Z" fill="#3F3D56"/>
<path d="M166.706 45.9542C166.776 45.3313 166.481 44.7871 166.048 44.7387C165.614 44.6903 165.207 45.156 165.137 45.7789C165.067 46.4018 165.362 46.946 165.796 46.9944C166.229 47.0428 166.637 46.5771 166.706 45.9542Z" fill="#D9D9D9"/>
<path d="M172.614 43.7348C172.684 43.1119 172.389 42.5677 171.956 42.5193C171.522 42.4708 171.115 42.9365 171.045 43.5594C170.975 44.1823 171.27 44.7265 171.704 44.7749C172.137 44.8233 172.545 44.3576 172.614 43.7348Z" fill="#FF6584"/>
<path d="M165.336 37.7385C165.405 37.1156 165.111 36.5714 164.677 36.523C164.244 36.4745 163.836 36.9402 163.767 37.5631C163.697 38.186 163.992 38.7302 164.425 38.7786C164.859 38.827 165.266 38.3613 165.336 37.7385Z" fill="#3F3D56"/>
<path d="M45.8874 100.968H45.1936V10H98.7707V10.6938H98.7706C84.7451 10.6938 71.294 16.2654 61.3765 26.1829C51.459 36.1004 45.8874 49.5515 45.8874 63.577V100.968Z" fill="#D9D9D9"/>
<path d="M76.9572 180.908C76.0706 180.545 75.2734 179.993 74.6209 179.292C73.9684 178.59 73.4761 177.755 73.1781 176.844C72.88 175.933 72.7833 174.969 72.8947 174.017C73.0061 173.066 73.3228 172.149 73.8231 171.332L54.7083 144.463L60.8404 137.348L83.3101 169.428C84.623 170.372 85.544 171.765 85.8984 173.343C86.2528 174.921 86.016 176.574 85.2329 177.99C84.4498 179.405 83.1749 180.483 81.6496 181.021C80.1244 181.559 78.4548 181.519 76.9572 180.908H76.9572Z" fill="#FFB6B6"/>
<path d="M77.3963 95.7594C76.4292 95.1904 75.291 94.9847 74.186 95.1793C73.081 95.3738 72.0815 95.9558 71.3669 96.8209L45.5403 132.941L69.4749 166.935L78.8406 156.875L64.2717 133.981L83.6338 115.547C85.2249 112.061 85.468 108.109 84.316 104.455C83.164 100.8 80.6987 97.7025 77.3963 95.7594Z" fill="#22379D"/>
</g>
<defs>
<clipPath id="clip0_2204_15">
<rect width="199.613" height="231.825" fill="white" transform="translate(45.1936 10)"/>
</clipPath>
</defs>
</svg>
